<svg width="662" height="243" viewBox="0 0 662 243" fill="none" xmlns="http://www.w3.org/2000/svg">
<g clip-path="url(#clip0_15_2)">
<path d="M255.951 165V74.008H219.871V41.8H333.567V74.008H297.487V165H255.951ZM393.648 166.75C382.798 166.75 373.173 164.65 364.773 160.45C356.49 156.133 349.957 150.242 345.173 142.775C340.39 135.308 337.998 126.733 337.998 117.05C337.998 107.367 340.39 98.7917 345.173 91.325C349.957 83.8583 356.49 78.025 364.773 73.825C373.173 69.625 382.798 67.525 393.648 67.525C404.498 67.525 414.123 69.625 422.523 73.825C430.923 78.025 437.457 83.8583 442.123 91.325C446.907 98.7917 449.298 107.367 449.298 117.05C449.298 126.733 446.907 135.308 442.123 142.775C437.457 150.242 430.923 156.133 422.523 160.45C414.123 164.65 404.498 166.75 393.648 166.75ZM393.648 135.95C396.565 135.95 399.19 135.25 401.523 133.85C403.857 132.45 405.723 130.35 407.123 127.55C408.523 124.633 409.223 121.133 409.223 117.05C409.223 112.85 408.523 109.408 407.123 106.725C405.723 103.925 403.857 101.825 401.523 100.425C399.19 99.025 396.565 98.325 393.648 98.325C390.732 98.325 388.107 99.025 385.773 100.425C383.44 101.825 381.573 103.925 380.173 106.725C378.773 109.408 378.073 112.85 378.073 117.05C378.073 121.133 378.773 124.633 380.173 127.55C381.573 130.35 383.44 132.45 385.773 133.85C388.107 135.25 390.732 135.95 393.648 135.95ZM513.127 166.75C502.16 166.75 492.418 164.65 483.902 160.45C475.385 156.25 468.677 150.417 463.777 142.95C458.993 135.367 456.602 126.733 456.602 117.05C456.602 107.367 458.993 98.7917 463.777 91.325C468.677 83.8583 475.385 78.025 483.902 73.825C492.418 69.625 502.16 67.525 513.127 67.525C524.793 67.525 534.768 70.0333 543.052 75.05C551.335 80.0667 557.052 87.0083 560.202 95.875L529.577 110.925C527.593 106.492 525.143 103.283 522.227 101.3C519.427 99.3167 516.335 98.325 512.952 98.325C510.035 98.325 507.293 99.025 504.727 100.425C502.277 101.825 500.293 103.925 498.777 106.725C497.377 109.408 496.677 112.85 496.677 117.05C496.677 121.25 497.377 124.75 498.777 127.55C500.293 130.35 502.277 132.45 504.727 133.85C507.293 135.25 510.035 135.95 512.952 135.95C516.335 135.95 519.427 134.958 522.227 132.975C525.143 130.992 527.593 127.783 529.577 123.35L560.202 138.4C557.052 147.267 551.335 154.208 543.052 159.225C534.768 164.242 524.793 166.75 513.127 166.75ZM627.268 165V148.025L624.468 143.475V111.275C624.468 106.608 623.009 103.05 620.093 100.6C617.293 98.15 612.684 96.925 606.268 96.925C601.951 96.925 597.576 97.625 593.143 99.025C588.709 100.308 584.918 102.117 581.768 104.45L569.168 78.375C574.768 74.875 581.476 72.1917 589.293 70.325C597.109 68.4583 604.751 67.525 612.218 67.525C628.668 67.525 641.384 71.2 650.368 78.55C659.468 85.9 664.018 97.5667 664.018 113.55V165H627.268ZM600.143 166.75C592.326 166.75 585.793 165.408 580.543 162.725C575.293 160.042 571.326 156.483 568.643 152.05C565.959 147.5 564.618 142.483 564.618 137C564.618 130.817 566.193 125.567 569.343 121.25C572.493 116.933 577.276 113.667 583.693 111.45C590.226 109.233 598.451 108.125 608.368 108.125H628.318V127.2H614.668C610.468 127.2 607.376 127.9 605.393 129.3C603.526 130.583 602.593 132.567 602.593 135.25C602.593 137.467 603.409 139.333 605.043 140.85C606.793 142.25 609.126 142.95 612.043 142.95C614.726 142.95 617.176 142.25 619.393 140.85C621.726 139.333 623.418 137 624.468 133.85L629.543 145.575C628.026 152.692 624.818 158 619.918 161.5C615.018 165 608.426 166.75 600.143 166.75Z" fill="white"/>
<path d="M264.107 229.368C261.93 229.368 260.059 228.908 258.495 227.988C256.931 227.068 255.735 225.673 254.907 223.802C254.079 221.901 253.665 219.509 253.665 216.626C253.665 213.713 254.094 211.321 254.953 209.45C255.842 207.579 257.069 206.184 258.633 205.264C260.197 204.344 262.022 203.884 264.107 203.884C266.438 203.884 268.523 204.405 270.363 205.448C272.234 206.491 273.706 207.963 274.779 209.864C275.883 211.765 276.435 214.019 276.435 216.626C276.435 219.202 275.883 221.441 274.779 223.342C273.706 225.243 272.234 226.731 270.363 227.804C268.523 228.847 266.438 229.368 264.107 229.368ZM249.479 229V194.868H256.655V209.266L256.195 216.58L256.333 223.94V229H249.479ZM262.865 223.48C264.061 223.48 265.119 223.204 266.039 222.652C266.99 222.1 267.741 221.318 268.293 220.306C268.876 219.263 269.167 218.037 269.167 216.626C269.167 215.185 268.876 213.958 268.293 212.946C267.741 211.934 266.99 211.152 266.039 210.6C265.119 210.048 264.061 209.772 262.865 209.772C261.669 209.772 260.596 210.048 259.645 210.6C258.694 211.152 257.943 211.934 257.391 212.946C256.839 213.958 256.563 215.185 256.563 216.626C256.563 218.037 256.839 219.263 257.391 220.306C257.943 221.318 258.694 222.1 259.645 222.652C260.596 223.204 261.669 223.48 262.865 223.48ZM283.693 238.292C282.405 238.292 281.132 238.093 279.875 237.694C278.618 237.295 277.59 236.743 276.793 236.038L279.415 230.932C279.967 231.423 280.596 231.806 281.301 232.082C282.037 232.358 282.758 232.496 283.463 232.496C284.475 232.496 285.272 232.251 285.855 231.76C286.468 231.3 287.02 230.518 287.511 229.414L288.799 226.378L289.351 225.596L298.229 204.252H305.129L293.951 230.518C293.154 232.511 292.234 234.075 291.191 235.21C290.179 236.345 289.044 237.142 287.787 237.602C286.56 238.062 285.196 238.292 283.693 238.292ZM287.925 229.966L276.885 204.252H284.291L292.847 224.952L287.925 229.966Z" fill="white"/>
<path d="M309.201 229V203.7C309.201 200.909 310.029 198.686 311.685 197.03C313.341 195.343 315.702 194.5 318.769 194.5C319.811 194.5 320.808 194.607 321.759 194.822C322.74 195.037 323.568 195.374 324.243 195.834L322.357 201.032C321.958 200.756 321.513 200.541 321.023 200.388C320.532 200.235 320.011 200.158 319.459 200.158C318.416 200.158 317.603 200.465 317.021 201.078C316.469 201.661 316.193 202.55 316.193 203.746V206.046L316.377 209.128V229H309.201ZM305.383 210.324V204.804H322.541V210.324H305.383ZM326.313 229V204.252H333.489V229H326.313ZM329.901 200.802C328.582 200.802 327.509 200.419 326.681 199.652C325.853 198.885 325.439 197.935 325.439 196.8C325.439 195.665 325.853 194.715 326.681 193.948C327.509 193.181 328.582 192.798 329.901 192.798C331.219 192.798 332.293 193.166 333.121 193.902C333.949 194.607 334.363 195.527 334.363 196.662C334.363 197.858 333.949 198.855 333.121 199.652C332.323 200.419 331.25 200.802 329.901 200.802ZM354.759 229.368C352.582 229.368 350.711 228.908 349.147 227.988C347.583 227.068 346.387 225.673 345.559 223.802C344.731 221.901 344.317 219.509 344.317 216.626C344.317 213.713 344.747 211.321 345.605 209.45C346.495 207.579 347.721 206.184 349.285 205.264C350.849 204.344 352.674 203.884 354.759 203.884C357.09 203.884 359.175 204.405 361.015 205.448C362.886 206.491 364.358 207.963 365.431 209.864C366.535 211.765 367.087 214.019 367.087 216.626C367.087 219.202 366.535 221.441 365.431 223.342C364.358 225.243 362.886 226.731 361.015 227.804C359.175 228.847 357.09 229.368 354.759 229.368ZM340.131 229V194.868H347.307V209.266L346.847 216.58L346.985 223.94V229H340.131ZM353.517 223.48C354.713 223.48 355.771 223.204 356.691 222.652C357.642 222.1 358.393 221.318 358.945 220.306C359.528 219.263 359.819 218.037 359.819 216.626C359.819 215.185 359.528 213.958 358.945 212.946C358.393 211.934 357.642 211.152 356.691 210.6C355.771 210.048 354.713 209.772 353.517 209.772C352.321 209.772 351.248 210.048 350.297 210.6C349.347 211.152 348.595 211.934 348.043 212.946C347.491 213.958 347.215 215.185 347.215 216.626C347.215 218.037 347.491 219.263 348.043 220.306C348.595 221.318 349.347 222.1 350.297 222.652C351.248 223.204 352.321 223.48 353.517 223.48ZM384.173 229.368C381.352 229.368 378.868 228.816 376.721 227.712C374.605 226.608 372.964 225.105 371.799 223.204C370.634 221.272 370.051 219.079 370.051 216.626C370.051 214.142 370.618 211.949 371.753 210.048C372.918 208.116 374.498 206.613 376.491 205.54C378.484 204.436 380.738 203.884 383.253 203.884C385.676 203.884 387.853 204.405 389.785 205.448C391.748 206.46 393.296 207.932 394.431 209.864C395.566 211.765 396.133 214.05 396.133 216.718C396.133 216.994 396.118 217.316 396.087 217.684C396.056 218.021 396.026 218.343 395.995 218.65H375.893V214.464H392.223L389.463 215.706C389.463 214.418 389.202 213.299 388.681 212.348C388.16 211.397 387.439 210.661 386.519 210.14C385.599 209.588 384.526 209.312 383.299 209.312C382.072 209.312 380.984 209.588 380.033 210.14C379.113 210.661 378.392 211.413 377.871 212.394C377.35 213.345 377.089 214.479 377.089 215.798V216.902C377.089 218.251 377.38 219.447 377.963 220.49C378.576 221.502 379.42 222.284 380.493 222.836C381.597 223.357 382.885 223.618 384.357 223.618C385.676 223.618 386.826 223.419 387.807 223.02C388.819 222.621 389.739 222.023 390.567 221.226L394.385 225.366C393.25 226.654 391.824 227.651 390.107 228.356C388.39 229.031 386.412 229.368 384.173 229.368ZM413.193 229.368C410.371 229.368 407.887 228.816 405.741 227.712C403.625 226.608 401.984 225.105 400.819 223.204C399.653 221.272 399.071 219.079 399.071 216.626C399.071 214.142 399.638 211.949 400.773 210.048C401.938 208.116 403.517 206.613 405.511 205.54C407.504 204.436 409.758 203.884 412.273 203.884C414.695 203.884 416.873 204.405 418.805 205.448C420.767 206.46 422.316 207.932 423.451 209.864C424.585 211.765 425.153 214.05 425.153 216.718C425.153 216.994 425.137 217.316 425.107 217.684C425.076 218.021 425.045 218.343 425.015 218.65H404.913V214.464H421.243L418.483 215.706C418.483 214.418 418.222 213.299 417.701 212.348C417.179 211.397 416.459 210.661 415.539 210.14C414.619 209.588 413.545 209.312 412.319 209.312C411.092 209.312 410.003 209.588 409.053 210.14C408.133 210.661 407.412 211.413 406.891 212.394C406.369 213.345 406.109 214.479 406.109 215.798V216.902C406.109 218.251 406.4 219.447 406.983 220.49C407.596 221.502 408.439 222.284 409.513 222.836C410.617 223.357 411.905 223.618 413.377 223.618C414.695 223.618 415.845 223.419 416.827 223.02C417.839 222.621 418.759 222.023 419.587 221.226L423.405 225.366C422.27 226.654 420.844 227.651 419.127 228.356C417.409 229.031 415.431 229.368 413.193 229.368Z" fill="#FDC202"/>
<path d="M130.527 106.841C130.527 108.243 130.159 109.621 129.458 110.836C128.758 112.051 127.751 113.06 126.537 113.763L94.2993 132.438C93.0808 133.144 91.6976 133.516 90.2893 133.516C88.8811 133.516 87.4979 133.144 86.2793 132.438L54.0423 113.763C52.829 113.06 51.8216 112.051 51.1214 110.836C50.4211 109.621 50.0524 108.243 50.0523 106.841V69.447C50.0528 68.0451 50.4216 66.6679 51.1219 65.4534C51.8221 64.2389 52.8293 63.2298 54.0423 62.527L86.2793 43.85C87.4979 43.1442 88.8811 42.7725 90.2893 42.7725C91.6976 42.7725 93.0808 43.1442 94.2993 43.85L126.537 62.527C127.75 63.2298 128.758 64.2389 129.458 65.4534C130.158 66.6679 130.527 68.0451 130.527 69.447V106.841Z" stroke="white" stroke-width="9" stroke-linecap="round" stroke-linejoin="round"/>
<path d="M178.615 189.279C178.615 190.681 178.247 192.058 177.546 193.273C176.846 194.488 175.839 195.498 174.625 196.201L142.387 214.876C141.169 215.581 139.785 215.953 138.377 215.953C136.969 215.953 135.586 215.581 134.367 214.876L102.13 196.201C100.917 195.498 99.9095 194.488 99.2093 193.273C98.509 192.058 98.1403 190.681 98.1402 189.279V151.885C98.1407 150.483 98.5095 149.105 99.2097 147.891C99.91 146.676 100.917 145.667 102.13 144.965L134.367 126.288C135.586 125.582 136.969 125.21 138.377 125.21C139.785 125.21 141.169 125.582 142.387 126.288L174.625 144.965C175.838 145.667 176.845 146.676 177.546 147.891C178.246 149.105 178.615 150.483 178.615 151.885V189.279Z" stroke="white" stroke-width="9" stroke-linecap="round" stroke-linejoin="round"/>
<path d="M88.3789 189.233C88.3788 191.338 87.8253 193.405 86.774 195.228C85.7226 197.051 84.2103 198.565 82.3889 199.619L50.1999 218.242C48.3733 219.299 46.3003 219.856 44.1899 219.856C42.0796 219.856 40.0065 219.299 38.1799 218.242L5.98991 199.619C4.16846 198.565 2.6562 197.051 1.60484 195.228C0.553484 193.405 5.02303e-07 191.338 -9.15527e-05 189.233V151.933C-0.000876561 149.828 0.552197 147.759 1.6036 145.936C2.655 144.112 4.16773 142.596 5.98991 141.542L38.1789 122.92C40.0055 121.863 42.0786 121.307 44.1889 121.307C46.2993 121.307 48.3723 121.863 50.1989 122.92L82.3889 141.542C84.2111 142.596 85.7238 144.112 86.7752 145.936C87.8266 147.759 88.3797 149.828 88.3789 151.933V189.233Z" fill="#FDC202"/>
</g>
<defs>
<clipPath id="clip0_15_2">
<rect width="661.167" height="243" fill="white"/>
</clipPath>
</defs>
</svg>
